<svg xmlns="http://www.w3.org/2000/svg" xmlns:xlink="http://www.w3.org/1999/xlink" width="512" zoomAndPan="magnify" viewBox="0 0 384 383.999986" height="512" preserveAspectRatio="xMidYMid meet" version="1.0"><defs><g/><clipPath id="72b27ca025"><path d="M 56.25 0 L 327.75 0 C 342.667969 0 356.976562 5.925781 367.523438 16.476562 C 378.074219 27.023438 384 41.332031 384 56.25 L 384 327.75 C 384 358.816406 358.816406 384 327.75 384 L 56.25 384 C 25.183594 384 0 358.816406 0 327.75 L 0 56.25 C 0 25.183594 25.183594 0 56.25 0 Z M 56.25 0 " clip-rule="nonzero"/></clipPath></defs><g clip-path="url(#72b27ca025)"><rect x="-38.4" width="460.8" fill="#76946a" y="-38.399999" height="460.799983" fill-opacity="1"/></g><g fill="#16161d" fill-opacity="1"><g transform="translate(51.199222, 272.999978)"><g><path d="M 11 19.578125 C 25.519531 19.578125 37.253906 18.144531 46.203125 15.28125 C 55.148438 12.425781 61.894531 8.359375 66.4375 3.078125 C 70.988281 -2.203125 73.921875 -8.65625 75.234375 -16.28125 L 90.859375 -105.15625 L 98.78125 -95.703125 L 31.234375 -95.703125 L 35.640625 -121 L 122.3125 -121 L 104.5 -19.796875 C 102.300781 -6.597656 96.875 4.835938 88.21875 14.515625 C 79.5625 24.203125 68.265625 31.644531 54.328125 36.84375 C 40.398438 42.050781 24.414062 44.65625 6.375 44.65625 Z M 102.078125 -179.296875 L 134.421875 -179.296875 L 128.484375 -145.640625 L 96.140625 -145.640625 Z M 102.078125 -179.296875 "/></g></g></g><g fill="#16161d" fill-opacity="1"><g transform="translate(191.997364, 272.999978)"><g><path d="M 96.578125 -78.984375 C 97.753906 -85.722656 97.316406 -90.671875 95.265625 -93.828125 C 93.210938 -96.984375 89.101562 -98.5625 82.9375 -98.5625 C 76.632812 -98.5625 70.582031 -96.617188 64.78125 -92.734375 C 58.988281 -88.847656 51.769531 -81.988281 43.125 -72.15625 L 42.90625 -88.4375 C 50.53125 -99.582031 59.035156 -108.160156 68.421875 -114.171875 C 77.804688 -120.191406 87.632812 -123.203125 97.90625 -123.203125 C 109.050781 -123.203125 117.113281 -119.828125 122.09375 -113.078125 C 127.082031 -106.328125 128.476562 -96.722656 126.28125 -84.265625 L 111.3125 0 L 82.71875 0 Z M 37.625 -162.796875 L 66.4375 -162.796875 L 37.84375 0 L 9.015625 0 Z M 37.625 -162.796875 "/></g></g></g></svg>